<mxfile host="app.diagrams.net" agent="Mozilla/5.0 (Windows NT 10.0; Win64; x64) AppleWebKit/537.36 (KHTML, like Gecko) Chrome/131.0.0.0 Safari/537.36" version="24.8.9">
  <diagram name="Use Case Diagram" id="x7Q1yx3jxiJvKHd3VHQ3">
    <mxGraphModel dx="1221" dy="725" grid="1" gridSize="10" guides="1" tooltips="1" connect="1" arrows="1" fold="1" page="1" pageScale="1" pageWidth="827" pageHeight="1169" math="0" shadow="0">
      <root>
        <mxCell id="0" />
        <mxCell id="1" parent="0" />
        <mxCell id="YHg5LCT2Mw8mGLbqKmSL-1" value="User" style="ellipse;whiteSpace=wrap;html=1;aspect=fixed;" vertex="1" parent="1">
          <mxGeometry x="50" y="200" width="80" height="80" as="geometry" />
        </mxCell>
        <mxCell id="YHg5LCT2Mw8mGLbqKmSL-2" value="Train Model" style="rounded=1;whiteSpace=wrap;html=1;" vertex="1" parent="1">
          <mxGeometry x="200" y="50" width="120" height="60" as="geometry" />
        </mxCell>
        <mxCell id="YHg5LCT2Mw8mGLbqKmSL-3" value="Test Model" style="rounded=1;whiteSpace=wrap;html=1;" vertex="1" parent="1">
          <mxGeometry x="200" y="150" width="120" height="60" as="geometry" />
        </mxCell>
        <mxCell id="YHg5LCT2Mw8mGLbqKmSL-4" value="Process Data" style="rounded=1;whiteSpace=wrap;html=1;" vertex="1" parent="1">
          <mxGeometry x="200" y="250" width="120" height="60" as="geometry" />
        </mxCell>
        <mxCell id="YHg5LCT2Mw8mGLbqKmSL-5" value="Use Model" style="rounded=1;whiteSpace=wrap;html=1;" vertex="1" parent="1">
          <mxGeometry x="200" y="350" width="120" height="60" as="geometry" />
        </mxCell>
        <mxCell id="YHg5LCT2Mw8mGLbqKmSL-6" edge="1" parent="1" source="YHg5LCT2Mw8mGLbqKmSL-1" target="YHg5LCT2Mw8mGLbqKmSL-2">
          <mxGeometry relative="1" as="geometry" />
        </mxCell>
        <mxCell id="YHg5LCT2Mw8mGLbqKmSL-7" edge="1" parent="1" source="YHg5LCT2Mw8mGLbqKmSL-1" target="YHg5LCT2Mw8mGLbqKmSL-3">
          <mxGeometry relative="1" as="geometry" />
        </mxCell>
        <mxCell id="YHg5LCT2Mw8mGLbqKmSL-8" edge="1" parent="1" source="YHg5LCT2Mw8mGLbqKmSL-1" target="YHg5LCT2Mw8mGLbqKmSL-4">
          <mxGeometry relative="1" as="geometry" />
        </mxCell>
        <mxCell id="YHg5LCT2Mw8mGLbqKmSL-9" edge="1" parent="1" source="YHg5LCT2Mw8mGLbqKmSL-1" target="YHg5LCT2Mw8mGLbqKmSL-5">
          <mxGeometry relative="1" as="geometry" />
        </mxCell>
      </root>
    </mxGraphModel>
  </diagram>
</mxfile>
